<svg viewBox="0 0 800 500" preserveAspectRatio="none" xmlns="http://www.w3.org/2000/svg" xmlns:xlink="http://www.w3.org/1999/xlink" width="100%" id="blobSvg">
  <g transform="translate(375, -33)">
    <path class="blob" d="M434.5,289Q450,328,399,333.5Q348,339,348.5,393.5Q349,448,306,421.5Q263,395,227.5,425Q192,455,188.5,395.5Q185,336,154.5,332Q124,328,130.5,299.5Q137,271,108.5,244.5Q80,218,70.5,175.5Q61,133,101,119.5Q141,106,165,70Q189,34,225.5,79Q262,124,300.5,97.5Q339,71,369,93Q399,115,434,140Q469,165,444,207.5Q419,250,434.5,289Z" fill="#e6e6e6"></path>
  </g>
  <g transform="translate(138, -47)">
    <path class="blob" d="M434.5,289Q450,328,399,333.5Q348,339,348.5,393.5Q349,448,306,421.5Q263,395,227.5,425Q192,455,188.5,395.5Q185,336,154.5,332Q124,328,130.5,299.5Q137,271,108.5,244.5Q80,218,70.5,175.5Q61,133,101,119.5Q141,106,165,70Q189,34,225.5,79Q262,124,300.5,97.5Q339,71,369,93Q399,115,434,140Q469,165,444,207.5Q419,250,434.5,289Z" fill="#e6e6e6"></path>
  </g>
  <g transform="translate(-245, -197)">
    <path class="blob" d="M434.5,289Q450,328,399,333.5Q348,339,348.5,393.5Q349,448,306,421.5Q263,395,227.5,425Q192,455,188.5,395.5Q185,336,154.5,332Q124,328,130.5,299.5Q137,271,108.5,244.5Q80,218,70.5,175.5Q61,133,101,119.5Q141,106,165,70Q189,34,225.5,79Q262,124,300.5,97.5Q339,71,369,93Q399,115,434,140Q469,165,444,207.5Q419,250,434.5,289Z" fill="#e6e6e6"></path>
  </g>
  <g transform="translate(322, 143)">
    <path class="blob" d="M434.5,289Q450,328,399,333.5Q348,339,348.5,393.5Q349,448,306,421.5Q263,395,227.5,425Q192,455,188.5,395.5Q185,336,154.5,332Q124,328,130.5,299.5Q137,271,108.5,244.5Q80,218,70.5,175.5Q61,133,101,119.5Q141,106,165,70Q189,34,225.5,79Q262,124,300.5,97.5Q339,71,369,93Q399,115,434,140Q469,165,444,207.5Q419,250,434.5,289Z" fill="#e6e6e6"></path>
  </g>
  <g transform="translate(12, -139)">
    <path class="blob" d="M434.5,289Q450,328,399,333.5Q348,339,348.5,393.5Q349,448,306,421.5Q263,395,227.5,425Q192,455,188.5,395.5Q185,336,154.5,332Q124,328,130.5,299.5Q137,271,108.5,244.5Q80,218,70.5,175.5Q61,133,101,119.5Q141,106,165,70Q189,34,225.5,79Q262,124,300.5,97.5Q339,71,369,93Q399,115,434,140Q469,165,444,207.5Q419,250,434.5,289Z" fill="#e6e6e6"></path>
  </g>
  <g transform="translate(259, -55)">
    <path class="blob" d="M434.5,289Q450,328,399,333.5Q348,339,348.5,393.5Q349,448,306,421.5Q263,395,227.5,425Q192,455,188.5,395.5Q185,336,154.5,332Q124,328,130.5,299.5Q137,271,108.5,244.5Q80,218,70.5,175.5Q61,133,101,119.5Q141,106,165,70Q189,34,225.5,79Q262,124,300.5,97.5Q339,71,369,93Q399,115,434,140Q469,165,444,207.5Q419,250,434.5,289Z" fill="#e6e6e6"></path>
  </g>
  <g transform="translate(-22, 244)">
    <path class="blob" d="M434.5,289Q450,328,399,333.5Q348,339,348.5,393.5Q349,448,306,421.5Q263,395,227.5,425Q192,455,188.5,395.5Q185,336,154.5,332Q124,328,130.5,299.5Q137,271,108.5,244.5Q80,218,70.5,175.5Q61,133,101,119.5Q141,106,165,70Q189,34,225.5,79Q262,124,300.5,97.5Q339,71,369,93Q399,115,434,140Q469,165,444,207.5Q419,250,434.5,289Z" fill="#e6e6e6"></path>
  </g>
</svg>